<?xml version="1.0" ?><!DOCTYPE svg  PUBLIC '-//W3C//DTD SVG 1.1//EN'  'http://www.w3.org/Graphics/SVG/1.1/DTD/svg11.dtd'><svg height="140px" id="Layer_1" style="enable-background:new 0 0 140 140;" version="1.1" viewBox="0 0 140 140" width="140px" xml:space="preserve" xmlns="http://www.w3.org/2000/svg" xmlns:xlink="http://www.w3.org/1999/xlink"><g><path d="M70,130c-33.084,0-60-26.917-60-60s26.916-60,60-60c33.085,0,60,26.917,60,60S103.085,130,70,130z" style="fill:#F2F2F2;"/><circle cx="70" cy="70" r="58.064" style="fill:#7A786A;"/><g><path d="M50.645,52.581c-2.916-1.546-7.877-5.929-9.301-10.593c-0.087-0.285-0.345-0.484-0.643-0.495    c-0.298-0.012-0.57,0.166-0.68,0.443c-2.3,5.839-2.953,16.992-0.989,24.193l15.484-7.742L50.645,52.581z" style="fill:#C35637;"/><path d="M40.387,65.224c-0.938-5.359-0.719-12.433,0.509-17.612c2.17,3.693,5.793,6.857,8.398,8.368    l2.395,3.593L40.387,65.224z" style="fill:#982417;"/><path d="M89.355,52.581c2.916-1.546,7.875-5.929,9.301-10.593c0.088-0.285,0.346-0.484,0.644-0.495    c0.298-0.012,0.569,0.167,0.681,0.443c2.299,5.839,2.952,16.992,0.988,24.193l-15.484-7.742L89.355,52.581z" style="fill:#B34F32;"/><path d="M88.311,59.572l2.395-3.593c2.605-1.51,6.229-4.675,8.4-8.368    c1.229,5.178,1.445,12.253,0.508,17.612L88.311,59.572z" style="fill:#801E13;"/><path d="M70,46.774c-18.169,0-32.903,12.138-32.903,27.1S51.831,100.967,70,100.967    c18.17,0,32.902-12.131,32.902-27.093C102.904,58.913,88.17,46.774,70,46.774z" style="fill:#F6D9A1;"/><path d="M70,46.774v54.193c18.17,0,32.902-12.131,32.902-27.093C102.904,58.913,88.17,46.774,70,46.774z" style="fill:#E6CA96;"/><path d="M61.291,70.968H44.839c-2.257,0-6.656,3.857-6.765,9.47c3.564,11.791,16.505,20.53,31.926,20.53    c15.421,0,28.361-8.739,31.926-20.53c-0.107-5.612-4.508-9.47-6.766-9.47H78.71H61.291z" style="fill:#B95933;"/><path d="M95.16,70.968H78.71H70v30c15.421,0,28.361-8.739,31.926-20.53    C101.818,74.825,97.418,70.968,95.16,70.968z" style="fill:#A6502E;"/><path d="M70,68.064c-2.903,0-8.709,1.936-8.709,6.774c4.838,0.969,6.774,9.678,8.709,9.678    c1.935,0,3.871-8.709,8.71-9.678C78.71,70,72.904,68.064,70,68.064z" style="fill:#F58F38;"/><path d="M70,68.064v16.452c1.936,0,3.871-8.709,8.71-9.677C78.71,70,72.904,68.064,70,68.064z" style="fill:#E68634;"/><path d="M53.549,78.709c-5.336,0-9.678-4.341-9.678-9.677c0-5.336,4.341-9.677,9.678-9.677    c5.336,0,9.677,4.341,9.677,9.677C63.226,74.368,58.885,78.709,53.549,78.709z" style="fill:#F0BD64;"/><circle cx="53.549" cy="69.032" r="8.709" style="fill:#F1EDD4;"/><circle cx="53.549" cy="69.032" r="3.871"/><circle cx="52.581" cy="68.064" r="0.968" style="fill:#F2F2F2;"/><path d="M86.451,78.709c5.336,0,9.678-4.341,9.678-9.677c0-5.336-4.342-9.677-9.678-9.677    s-9.678,4.341-9.678,9.677C76.773,74.368,81.115,78.709,86.451,78.709z" style="fill:#F0BD64;"/><circle cx="86.451" cy="69.032" r="8.709" style="fill:#F1EDD4;"/><circle cx="86.451" cy="69.032" r="3.871"/><circle cx="85.484" cy="68.064" r="0.968" style="fill:#F2F2F2;"/></g></g></svg>